<svg xmlns="http://www.w3.org/2000/svg" width="1600" height="900" viewBox="0 0 1600 900" role="img" aria-labelledby="scene-title scene-description"><title id="scene-title">现场 1：影城门口</title><desc id="scene-description">深蓝夜色下的旧影城门口，几个人影在海报墙前等待机会；霓虹灯、摄影机和拥挤的门廊形成斜向构图，地面反射着冷光。</desc><rect width="1600" height="900" fill="#1D2738"/><rect x="0" y="0" width="1600" height="900" rx="0" fill="#1D2738" stroke="none" stroke-width="0" opacity="1"/><rect x="0" y="600" width="1600" height="300" rx="0" fill="#33445A" stroke="none" stroke-width="0" opacity="1"/><rect x="90" y="180" width="780" height="520" rx="0" fill="#6D3E4B" stroke="#101925" stroke-width="6" opacity="1"/><rect x="360" y="310" width="240" height="320" rx="0" fill="#18202C" stroke="#8B6470" stroke-width="4" opacity="1"/><rect x="155" y="285" width="135" height="250" rx="0" fill="#8E4C55" stroke="#D9A36C" stroke-width="3" opacity="0.85"/><rect x="555" y="285" width="135" height="250" rx="0" fill="#45687C" stroke="#B4C6C9" stroke-width="3" opacity="0.85"/><polygon points="180,480 235,340 270,480" fill="#B67A55" stroke="none" stroke-width="0" opacity="0.9"/><ellipse cx="1010" cy="560" rx="28" ry="28" fill="#D5B57A" stroke="none" stroke-width="0" opacity="1"/><rect x="987" y="585" width="46" height="180" rx="6" fill="#151B25" stroke="none" stroke-width="0" opacity="1"/><polygon points="992,610 935,735 970,745 1020,650" fill="#151B25" stroke="none" stroke-width="0" opacity="1"/><polygon points="1028,610 1088,735 1050,745 1005,650" fill="#151B25" stroke="none" stroke-width="0" opacity="1"/><ellipse cx="1185" cy="635" rx="23" ry="25" fill="#D4B178" stroke="none" stroke-width="0" opacity="1"/><rect x="1165" y="660" width="38" height="125" rx="3" fill="#252C35" stroke="none" stroke-width="0" opacity="1"/><rect x="1270" y="575" width="150" height="120" rx="4" fill="#141A20" stroke="#ACB9BE" stroke-width="5" opacity="1"/><ellipse cx="1350" cy="635" rx="54" ry="54" fill="#687D84" stroke="#AAB9BC" stroke-width="5" opacity="1"/><rect x="900" y="260" width="110" height="10" rx="0" fill="#E9B85F" stroke="none" stroke-width="0" opacity="1"/><rect x="1040" y="300" width="170" height="12" rx="0" fill="#E9B85F" stroke="none" stroke-width="0" opacity="1"/></svg>